<svg xmlns="http://www.w3.org/2000/svg" viewBox="0 0 216.09 208.57"><defs><style>.cls-1{fill:#ffc680;}.cls-2{fill:#fba0a3;}.cls-3{fill:#00e4a7;}.cls-4{fill:none;stroke:#22244d;stroke-linecap:round;stroke-miterlimit:10;stroke-width:9px;}</style></defs><title>Asset 46</title><g id="Layer_2" data-name="Layer 2"><g id="Layer_1-2" data-name="Layer 1"><circle class="cls-1" cx="39.81" cy="9.68" r="9.68"/><circle class="cls-2" cx="17.07" cy="137.31" r="17.07"/><circle class="cls-3" cx="174.35" cy="25.35" r="25.35"/><path class="cls-4" d="M116.18,36.54,135,76.21l43.55,5.66a4.58,4.58,0,0,1,2.56,7.86l-31.9,30.18,8.07,43.17a4.58,4.58,0,0,1-6.69,4.86l-38.56-21-6,3.26-7.79,4.25L73.49,167.95a4.58,4.58,0,0,1-6.69-4.86l8.07-43.17L43,89.74a4.58,4.58,0,0,1,2.56-7.86l43.55-5.66,18.84-39.67A4.58,4.58,0,0,1,116.18,36.54Z"/><path class="cls-4" d="M141.26,9.58a99.74,99.74,0,0,0-70.39,4.71"/><path class="cls-4" d="M196.14,157.85A99.45,99.45,0,0,0,199.7,57.44"/><path class="cls-4" d="M33.13,166.1a99.35,99.35,0,0,0,136.57,19"/><path class="cls-4" d="M41.52,34.88a99,99,0,0,0-28.59,69.73q0,1.52,0,3"/></g></g></svg>