<svg xmlns="http://www.w3.org/2000/svg" viewBox="0 0 271.14 227.65"><defs><style>.cls-1{fill:#ffc680;}.cls-2{fill:#00e4a7;}.cls-3{fill:#fba0a3;}.cls-4{fill:none;stroke:#22244d;stroke-linecap:round;stroke-miterlimit:10;stroke-width:9px;}</style></defs><title>Managed Service</title><g id="Layer_2" data-name="Layer 2"><g id="Layer_1-2" data-name="Layer 1"><circle class="cls-1" cx="185.39" cy="28.41" r="9.66"/><circle class="cls-1" cx="260.6" cy="110.4" r="10.55"/><circle class="cls-2" cx="9.3" cy="120.97" r="9.3"/><circle class="cls-3" cx="116.04" cy="18.75" r="18.75"/><path class="cls-4" d="M236.84,87v86.68A11.28,11.28,0,0,1,225.56,185H49.77a11.28,11.28,0,0,1-11.28-11.28V67.36A11.28,11.28,0,0,1,49.77,56.09H206"/><line class="cls-4" x1="116.04" y1="223.15" x2="95.93" y2="185"/><line class="cls-4" x1="181.91" y1="223.15" x2="161.81" y2="185"/><line class="cls-4" x1="73.49" y1="223.15" x2="203.84" y2="223.15"/><path class="cls-1" d="M78.25,158V121.3a6,6,0,0,1,6-6h16.1a6,6,0,0,1,6,6V158Z"/><path class="cls-3" d="M118.19,158V88.27a6,6,0,0,1,6-6h16.1a6,6,0,0,1,6,6V158Z"/><path class="cls-2" d="M157.22,158V108.41a6,6,0,0,1,6-6h16.1a6,6,0,0,1,6,6V158Z"/><line class="cls-4" x1="219.37" y1="56.09" x2="252.95" y2="56.09"/><line class="cls-4" x1="236.16" y1="39.29" x2="236.16" y2="72.88"/></g></g></svg>