<svg xmlns="http://www.w3.org/2000/svg" viewBox="0 0 198.85 195.73"><defs><style>.cls-1{fill:#00e4a7;}.cls-2{fill:#fba0a3;}.cls-3,.cls-4{fill:none;stroke:#22244d;stroke-miterlimit:10;stroke-width:9px;}.cls-4{stroke-linecap:round;}.cls-5{fill:#ffc680;}</style></defs><title>Agency_Posa</title><g id="Layer_2" data-name="Layer 2"><g id="Layer_1-2" data-name="Layer 1"><circle class="cls-1" cx="144.43" cy="141.43" r="10.02"/><circle class="cls-2" cx="144.43" cy="19.2" r="13.23"/><path class="cls-3" d="M141.58,125H79l-6.66,17.2a11.64,11.64,0,0,1-22.62-3.88,10.58,10.58,0,0,1,.81-4L82.08,52.81a20.29,20.29,0,0,1,37.81,0L147.58,116A6.48,6.48,0,0,1,141.58,125Zm-23.47-15.28-14.38-41a2.91,2.91,0,0,0-5.49,0l-14.38,41Z"/><path class="cls-4" d="M14.66,133.52A93.38,93.38,0,1,0,168.51,33.39"/><path class="cls-4" d="M122.68,7A93.45,93.45,0,0,0,7.61,97.87"/><circle class="cls-5" cx="10.47" cy="115.21" r="10.47"/></g></g></svg>