<svg xmlns="http://www.w3.org/2000/svg" viewBox="0 0 191.2 205.65"><defs><style>.cls-1{fill:#ffc680;}.cls-2{fill:#00e4a7;}.cls-3,.cls-4{fill:none;stroke:#22244d;stroke-linecap:round;stroke-miterlimit:10;}.cls-3{stroke-width:14px;}.cls-4{stroke-width:9px;}.cls-5{fill:#fba0a3;}</style></defs><title>Ecom_Posa</title><g id="Layer_2" data-name="Layer 2"><g id="Layer_1-2" data-name="Layer 1"><circle class="cls-1" cx="11.75" cy="127.75" r="11.75"/><circle class="cls-2" cx="12.65" cy="9.54" r="9.54"/><circle class="cls-2" cx="73.85" cy="176.15" r="9.04"/><path class="cls-3" d="M87.82,135.7"/><path class="cls-4" d="M129.11,114.47V70.82l21.83,14.75,14.65-34.69L138,27.06a48.21,48.21,0,0,0-31.48-11.7h-1a21.82,21.82,0,0,1-36.2.54l-.38-.54H66.8a48.21,48.21,0,0,0-31.48,11.7L10,48.93,24.7,85.56,46.53,70.82V135.7h60.62"/><path class="cls-4" d="M115.38,105.72,107.76,174a1.92,1.92,0,0,0,2.54,2l57.08-20a1.92,1.92,0,0,0,.71-3.19l-49.47-48.3A1.92,1.92,0,0,0,115.38,105.72Z"/><line class="cls-4" x1="138.87" y1="167.11" x2="153.71" y2="201.15"/><circle class="cls-5" cx="174.36" cy="111.77" r="16.83"/></g></g></svg>