<svg xmlns="http://www.w3.org/2000/svg" viewBox="0 0 263.18 205.96"><defs><style>.cls-1{fill:#00e4a7;}.cls-2{fill:#ffc680;}.cls-3{fill:#fba0a3;}.cls-4{fill:none;stroke:#22244d;stroke-linecap:round;stroke-miterlimit:10;stroke-width:9px;}.cls-5{fill:#22244d;}</style></defs><title>Asset 41</title><g id="Layer_2" data-name="Layer 2"><g id="Layer_1-2" data-name="Layer 1"><circle class="cls-1" cx="8.38" cy="108.94" r="8.38"/><circle class="cls-2" cx="243.26" cy="62.46" r="13.27"/><circle class="cls-3" cx="104.5" cy="16.88" r="16.88"/><path class="cls-4" d="M183.56,166.6H44.82a10.16,10.16,0,0,1-10.16-10.16V60.66A10.16,10.16,0,0,1,44.82,50.51H203.13a10.16,10.16,0,0,1,10.16,10.16V84.12"/><line class="cls-4" x1="104.5" y1="200.96" x2="86.39" y2="166.6"/><line class="cls-4" x1="163.82" y1="200.96" x2="145.71" y2="166.6"/><line class="cls-4" x1="66.19" y1="200.96" x2="183.56" y2="200.96"/><rect class="cls-4" x="200.54" y="100.83" width="58.14" height="100.63" rx="5.63" ry="5.63"/><line class="cls-4" x1="200.54" y1="180.26" x2="258.68" y2="180.26"/><line class="cls-4" x1="200.54" y1="118.08" x2="258.68" y2="118.08"/><circle class="cls-5" cx="229.68" cy="190.65" r="3.7"/><polygon class="cls-3" points="138.27 91.07 138.27 91.07 104.49 84.43 104.49 108.93 72.64 108.93 72.64 120.54 104.49 126.8 138.27 133.44 138.27 108.94 170.12 108.94 170.12 97.33 138.27 91.07"/></g></g></svg>