<svg xmlns="http://www.w3.org/2000/svg" viewBox="0 0 200.99 201.2"><defs><style>.cls-1{fill:#ffc680;}.cls-2{fill:#00e4a7;}.cls-3{fill:#fba0a3;}.cls-4,.cls-5{fill:none;stroke:#22244d;stroke-linecap:round;stroke-miterlimit:10;}.cls-4{stroke-width:9px;}.cls-5{stroke-width:14px;}</style></defs><title>Retail_Posa</title><g id="Layer_2" data-name="Layer 2"><g id="Layer_1-2" data-name="Layer 1"><circle class="cls-1" cx="77.16" cy="7.29" r="7.29"/><circle class="cls-1" cx="133.91" cy="16.67" r="3.65"/><circle class="cls-2" cx="52.27" cy="40.92" r="8.76"/><circle class="cls-2" cx="155.82" cy="43.62" r="8.76"/><circle class="cls-3" cx="109.17" cy="38.26" r="17.88"/><line class="cls-4" x1="31.15" y1="96.3" x2="31.15" y2="191.25"/><line class="cls-4" x1="170.74" y1="96.3" x2="170.74" y2="191.25"/><polyline class="cls-4" points="46.49 89.67 31.15 89.67 31.15 144.69"/><polyline class="cls-4" points="155.82 89.67 171.16 89.67 171.16 144.69"/><line class="cls-4" x1="4.5" y1="196.7" x2="195.86" y2="196.7"/><rect class="cls-4" x="46.49" y="74.63" width="109.33" height="30.07"/><path class="cls-4" d="M52.27,141.86s11.13,7.8,18.93,0"/><path class="cls-4" d="M71.2,141.86s11.13,7.8,18.93,0"/><path class="cls-4" d="M90.24,141.86s11.13,7.8,18.93,0"/><path class="cls-4" d="M109.17,141.86s11.13,7.8,18.93,0"/><path class="cls-4" d="M128.09,141.86s11.13,7.8,18.93,0"/><line class="cls-4" x1="61.74" y1="147.59" x2="61.74" y2="196.7"/><line class="cls-4" x1="137.56" y1="147.59" x2="137.56" y2="196.7"/><line class="cls-4" x1="173.34" y1="86.74" x2="196.49" y2="63.68"/><line class="cls-4" x1="8.1" y1="63.64" x2="31.15" y2="86.79"/><path class="cls-5" d="M49.32,11.64"/><line class="cls-4" x1="98.94" y1="144.69" x2="98.94" y2="191.25"/></g></g></svg>