<?xml version="1.0" encoding="utf-8"?>
<!-- Generator: Adobe Illustrator 22.1.0, SVG Export Plug-In . SVG Version: 6.00 Build 0)  -->
<svg version="1.1" id="Layer_1" xmlns="http://www.w3.org/2000/svg" xmlns:xlink="http://www.w3.org/1999/xlink" x="0px" y="0px"
	 viewBox="0 0 100 100" style="enable-background:new 0 0 100 100;" xml:space="preserve">
<style type="text/css">
	.st0{fill:#FFC680;}
	.st1{fill:#FBA0A3;}
	.st2{fill:#22244D;}
	.st3{fill:#00E4A7;}
</style>
<g>
	<g>
		<circle class="st0" cx="21.4" cy="22.3" r="6.6"/>
	</g>
	<g>
		<circle class="st1" cx="88.5" cy="49.1" r="6.2"/>
	</g>
	<g>
		<path class="st2" d="M50,62.5c-6.9,0-12.5-5.6-12.5-12.5S43.1,37.6,50,37.6S62.5,43.2,62.5,50S56.9,62.5,50,62.5z M50,41
			c-5,0-9.1,4.1-9.1,9.1s4.1,9.1,9.1,9.1S59,55,59,50S55,41,50,41z"/>
	</g>
	<g>
		<g>
			<path class="st2" d="M39.3,52.7h-17c-0.9,0-1.7-0.8-1.7-1.7c0-0.9,0.8-1.7,1.7-1.7h17c0.9,0,1.7,0.8,1.7,1.7
				C41,51.9,40.2,52.7,39.3,52.7z"/>
		</g>
		<g>
			<path class="st2" d="M14.4,60.5c-5.3,0-9.6-4.3-9.6-9.6s4.3-9.6,9.6-9.6S24,45.7,24,51S19.7,60.5,14.4,60.5z M14.4,44.8
				c-3.4,0-6.1,2.8-6.1,6.1c0,3.4,2.8,6.1,6.1,6.1c3.4,0,6.1-2.8,6.1-6.1C20.6,47.6,17.8,44.8,14.4,44.8z"/>
		</g>
	</g>
	<g>
		<path class="st2" d="M41.7,44.8c-0.4,0-0.9-0.2-1.2-0.5L28.5,32.3c-0.7-0.7-0.7-1.8,0-2.4c0.7-0.7,1.8-0.7,2.4,0l12.1,12.1
			c0.7,0.7,0.7,1.8,0,2.4C42.6,44.7,42.2,44.8,41.7,44.8z"/>
	</g>
	<g>
		<g>
			<path class="st2" d="M49,41c-0.9,0-1.7-0.8-1.7-1.7v-17c0-0.9,0.8-1.7,1.7-1.7c0.9,0,1.7,0.8,1.7,1.7v17C50.8,40.3,50,41,49,41z"
				/>
		</g>
		<g>
			<path class="st2" d="M49,24.1c-5.3,0-9.6-4.3-9.6-9.6s4.3-9.6,9.6-9.6c5.3,0,9.6,4.3,9.6,9.6S54.3,24.1,49,24.1z M49,8.4
				c-3.4,0-6.1,2.8-6.1,6.1s2.8,6.1,6.1,6.1c3.4,0,6.1-2.8,6.1-6.1S52.4,8.4,49,8.4z"/>
		</g>
	</g>
	<g>
		<g>
			<path class="st2" d="M56.9,43.5c-0.4,0-0.9-0.2-1.2-0.5c-0.7-0.7-0.7-1.8,0-2.4l12.1-12.1c0.7-0.7,1.8-0.7,2.4,0
				c0.7,0.7,0.7,1.8,0,2.4L58.1,43C57.8,43.3,57.3,43.5,56.9,43.5z"/>
		</g>
		<g>
			<path class="st2" d="M74.4,33.8c-2.6,0-5-1-6.8-2.8v0c-3.7-3.7-3.7-9.8,0-13.5c1.8-1.8,4.2-2.8,6.8-2.8c2.6,0,5,1,6.8,2.8
				c1.8,1.8,2.8,4.2,2.8,6.8s-1,5-2.8,6.8C79.4,32.8,77,33.8,74.4,33.8z M70.1,28.6c1.2,1.2,2.7,1.8,4.3,1.8c1.6,0,3.2-0.6,4.3-1.8
				c1.2-1.2,1.8-2.7,1.8-4.3s-0.6-3.2-1.8-4.3c-1.2-1.2-2.7-1.8-4.3-1.8c-1.6,0-3.2,0.6-4.3,1.8C67.7,22.3,67.7,26.2,70.1,28.6
				L70.1,28.6z"/>
		</g>
	</g>
	<g>
		<path class="st2" d="M77.7,50.8h-17c-0.9,0-1.7-0.8-1.7-1.7c0-0.9,0.8-1.7,1.7-1.7h17c0.9,0,1.7,0.8,1.7,1.7
			C79.5,50,78.7,50.8,77.7,50.8z"/>
	</g>
	<g>
		<path class="st2" d="M70.3,70.7c-0.4,0-0.9-0.2-1.2-0.5L57,58.2c-0.7-0.7-0.7-1.8,0-2.4c0.7-0.7,1.8-0.7,2.4,0l12.1,12.1
			c0.7,0.7,0.7,1.8,0,2.4C71.1,70.6,70.7,70.7,70.3,70.7z"/>
	</g>
	<g>
		<path class="st2" d="M75.8,84.1c-2.6,0-5-1-6.8-2.8c-3.7-3.7-3.7-9.8,0-13.5v0c3.7-3.7,9.8-3.7,13.5,0c1.8,1.8,2.8,4.2,2.8,6.8
			c0,2.6-1,5-2.8,6.8C80.7,83.1,78.3,84.1,75.8,84.1z M71.4,70.2c-2.4,2.4-2.4,6.3,0,8.7c1.2,1.2,2.7,1.8,4.3,1.8s3.2-0.6,4.3-1.8
			c1.2-1.2,1.8-2.7,1.8-4.3c0-1.6-0.6-3.2-1.8-4.3C77.7,67.8,73.8,67.8,71.4,70.2L71.4,70.2z"/>
	</g>
	<g>
		<path class="st2" d="M49.9,91c-0.9,0-1.7-0.8-1.7-1.7V60.8c0-0.9,0.8-1.7,1.7-1.7c0.9,0,1.7,0.8,1.7,1.7v28.5
			C51.6,90.2,50.8,91,49.9,91z"/>
	</g>
	<g>
		<g>
			<path class="st2" d="M31,72c-0.4,0-0.9-0.2-1.2-0.5c-0.7-0.7-0.7-1.8,0-2.4l12.1-12.1c0.7-0.7,1.8-0.7,2.4,0
				c0.7,0.7,0.7,1.8,0,2.4L32.2,71.5C31.9,71.9,31.4,72,31,72z"/>
		</g>
		<g>
			<path class="st2" d="M25.5,85.4c-2.6,0-5-1-6.8-2.8c-1.8-1.8-2.8-4.2-2.8-6.8c0-2.6,1-5,2.8-6.8c3.7-3.7,9.8-3.7,13.5,0h0
				c1.8,1.8,2.8,4.2,2.8,6.8c0,2.6-1,5-2.8,6.8C30.5,84.4,28.1,85.4,25.5,85.4z M25.5,69.7c-1.6,0-3.1,0.6-4.3,1.8
				c-1.2,1.2-1.8,2.7-1.8,4.3c0,1.6,0.6,3.2,1.8,4.3c1.2,1.2,2.7,1.8,4.3,1.8c1.6,0,3.2-0.6,4.3-1.8c1.2-1.2,1.8-2.7,1.8-4.3
				c0-1.6-0.6-3.2-1.8-4.3C28.7,70.3,27.1,69.7,25.5,69.7z"/>
		</g>
	</g>
	<g>
		<circle class="st3" cx="50" cy="89.3" r="6.9"/>
	</g>
</g>
</svg>
