<?xml version="1.0" encoding="utf-8"?>
<!-- Generator: Adobe Illustrator 22.1.0, SVG Export Plug-In . SVG Version: 6.00 Build 0)  -->
<svg version="1.1" id="Layer_1" xmlns="http://www.w3.org/2000/svg" xmlns:xlink="http://www.w3.org/1999/xlink" x="0px" y="0px"
	 viewBox="0 0 66 59" style="enable-background:new 0 0 66 59;" xml:space="preserve">
<style type="text/css">
	.st0{fill:#FFC680;}
	.st1{fill:#FBA0A3;}
	.st2{fill:#00E4A7;}
	.st3{fill:#22244D;}
	.st4{fill:none;stroke:#22244D;stroke-width:9;stroke-linecap:round;stroke-miterlimit:10;}
</style>
<g id="Layer_2_1_">
	<g id="Layer_1-2">
		<g>
			<circle class="st0" cx="9" cy="18.5" r="3.4"/>
		</g>
		<g>
			<circle class="st1" cx="59.1" cy="44.3" r="1.9"/>
		</g>
		<g>
			<path class="st0" d="M26.2,46.4v-6.8c0-0.6,0.5-1.1,1.1-1.1h3c0.6,0,1.1,0.5,1.1,1.1v6.8H26.2z"/>
		</g>
		<g>
			<path class="st1" d="M33.6,46.4V33.4c0-0.6,0.5-1.1,1.1-1.1h3c0.6,0,1.1,0.5,1.1,1.1v12.9H33.6z"/>
		</g>
		<g>
			<path class="st2" d="M40.9,46.4v-9.2c0-0.6,0.5-1.1,1.1-1.1h3c0.6,0,1.1,0.5,1.1,1.1v9.2H40.9z"/>
		</g>
		<g>
			<circle class="st2" cx="61.7" cy="28.4" r="4.2"/>
		</g>
		<g>
			<path class="st3" d="M19.3,22.2c-0.7,0-1.3-0.6-1.3-1.3V7.6c0-0.7,0.6-1.3,1.3-1.3c0.7,0,1.3,0.6,1.3,1.3v13.3
				C20.6,21.6,20,22.2,19.3,22.2z"/>
		</g>
		<g>
			<path class="st3" d="M53,58.6H24.4c-3.5,0-6.4-2.9-6.4-6.4V38.4c0-0.7,0.6-1.3,1.3-1.3c0.7,0,1.3,0.6,1.3,1.3v13.7
				c0,2.1,1.7,3.8,3.8,3.8H53c0.7,0,1.3,0.6,1.3,1.3S53.7,58.6,53,58.6z"/>
		</g>
		<g>
			<path class="st4" d="M53,7.6"/>
		</g>
		<g>
			<path class="st3" d="M20.6,8.7H6.9l0-1.3c0-3.8,3.1-6.9,6.9-6.9c0,0,0,0,0,0c1.8,0,3.6,0.7,4.9,2c1.3,1.3,2,3,2,4.9L20.6,8.7z
				 M9.7,6.2h8.2c-0.2-0.6-0.6-1.2-1.1-1.7c-0.8-0.8-1.9-1.3-3-1.3c0,0,0,0,0,0C11.8,3.2,10.2,4.4,9.7,6.2z"/>
		</g>
		<g>
			<path class="st3" d="M53,53c-0.7,0-1.3-0.6-1.3-1.3V7.5c0-2.4-1.9-4.3-4.3-4.3c-0.7,0-1.3-0.6-1.3-1.3s0.6-1.3,1.3-1.3
				c3.8,0,6.9,3.1,6.9,6.9v44.3C54.3,52.4,53.7,53,53,53z"/>
		</g>
		<g>
			<path class="st3" d="M48.3,3.2H13.7c-0.7,0-1.3-0.6-1.3-1.3s0.6-1.3,1.3-1.3h34.5c0.7,0,1.3,0.6,1.3,1.3S49,3.2,48.3,3.2z"/>
		</g>
		<g>
			<path class="st3" d="M24.9,58.6c-3.8,0-6.9-3.1-6.9-6.9v-1.3h13.7v1.3C31.8,55.5,28.7,58.6,24.9,58.6z M20.8,53
				c0.5,1.7,2.2,3,4.1,3c1.9,0,3.5-1.3,4.1-3H20.8z"/>
		</g>
		<g>
			<path class="st3" d="M58.5,58.6c-0.7,0-1.3-0.6-1.3-1.3s0.6-1.3,1.3-1.3c1.9,0,3.5-1.3,4.1-3H53c-0.7,0-1.3-0.6-1.3-1.3
				s0.6-1.3,1.3-1.3h12.4v1.3C65.4,55.5,62.3,58.6,58.5,58.6z"/>
		</g>
		<g>
			<path class="st3" d="M58.5,58.6H38.7c-0.7,0-1.3-0.6-1.3-1.3S38,56,38.7,56h19.8c0.7,0,1.3,0.6,1.3,1.3S59.3,58.6,58.5,58.6z"/>
		</g>
		<g>
			<path class="st3" d="M64.1,53H30.5c-0.7,0-1.3-0.6-1.3-1.3s0.6-1.3,1.3-1.3h33.6c0.7,0,1.3,0.6,1.3,1.3S64.8,53,64.1,53z"/>
		</g>
		<g>
			<path class="st3" d="M47.9,20.3H24.4c-0.7,0-1.3-0.6-1.3-1.3c0-0.7,0.6-1.3,1.3-1.3h23.5c0.7,0,1.3,0.6,1.3,1.3
				C49.2,19.7,48.6,20.3,47.9,20.3z"/>
		</g>
		<g>
			<path class="st3" d="M47.9,14.5H24.4c-0.7,0-1.3-0.6-1.3-1.3s0.6-1.3,1.3-1.3h23.5c0.7,0,1.3,0.6,1.3,1.3S48.6,14.5,47.9,14.5z"
				/>
		</g>
		<g>
			<path class="st3" d="M47.9,25.9H28.2c-0.7,0-1.3-0.6-1.3-1.3c0-0.7,0.6-1.3,1.3-1.3h19.7c0.7,0,1.3,0.6,1.3,1.3
				C49.2,25.3,48.6,25.9,47.9,25.9z"/>
		</g>
		<g>
			<path class="st3" d="M21.1,39.6c-5.4,0-9.7-4.4-9.7-9.7c0-5.4,4.4-9.7,9.7-9.7c5.4,0,9.7,4.4,9.7,9.7
				C30.8,35.2,26.5,39.6,21.1,39.6z M21.1,22.4c-4.1,0-7.5,3.4-7.5,7.5s3.4,7.5,7.5,7.5c4.1,0,7.5-3.4,7.5-7.5S25.2,22.4,21.1,22.4z
				"/>
		</g>
		<g>
			<path class="st3" d="M11.9,40.2c-0.3,0-0.6-0.1-0.8-0.3c-0.4-0.4-0.4-1.1,0-1.6l3.1-3.2c0.4-0.4,1.1-0.4,1.6,0
				c0.4,0.4,0.4,1.1,0,1.6l-3.1,3.2C12.5,40.1,12.2,40.2,11.9,40.2z"/>
		</g>
		<g>
			<path class="st3" d="M3.6,48.8c-0.3,0-0.6-0.1-0.8-0.3L0,45.8L7.8,38h4.1c0.6,0,1.1,0.5,1.1,1.1c0,0.6-0.5,1.1-1.1,1.1H8.7
				l-5.5,5.5l1.2,1.2c0.4,0.4,0.4,1.1,0,1.6C4.1,48.7,3.8,48.8,3.6,48.8z"/>
		</g>
		<g>
			<path class="st3" d="M5.2,51l-2.7-2.7c-0.4-0.4-0.4-1.1,0-1.6c0.4-0.4,1.1-0.4,1.6,0l1.2,1.2l5.5-5.5v-3.2c0-0.6,0.5-1.1,1.1-1.1
				s1.1,0.5,1.1,1.1v4.1L5.2,51z"/>
		</g>
	</g>
</g>
</svg>
