<svg xmlns="http://www.w3.org/2000/svg" viewBox="0 0 194.47 194.13"><defs><style>.cls-1{fill:#00e4a7;}.cls-2,.cls-4{fill:none;stroke-linecap:round;stroke-miterlimit:10;stroke-width:9px;}.cls-2{stroke:#22244d;}.cls-3{fill:#ffc680;}.cls-4{stroke:#323563;}</style></defs><title>Asset 56</title><g id="Layer_2" data-name="Layer 2"><g id="Layer_1-2" data-name="Layer 1"><circle class="cls-1" cx="12.25" cy="148.2" r="12.25"/><path class="cls-2" d="M114.57,81.56V107a3.68,3.68,0,0,1-3.68,3.68H83.15v-7.33A14.67,14.67,0,0,0,68.48,88.72h0a14.67,14.67,0,0,0-14.67,14.67v7.33h-35A3.68,3.68,0,0,1,15.15,107v-28h7.72A11.28,11.28,0,0,0,34.15,67.78h0A11.28,11.28,0,0,0,22.87,56.5H15.15V29.33a3.68,3.68,0,0,1,3.68-3.68H53.15V19.5a15,15,0,0,1,15-15h0a15,15,0,0,1,15,15v6.15h27.75a3.68,3.68,0,0,1,3.68,3.68v23.3a.87.87,0,0,0,.87.87h2.87a14,14,0,0,1,14,14h0a14,14,0,0,1-13.88,14l-3.87,0"/><circle class="cls-1" cx="153.76" cy="97.7" r="14.04" transform="translate(-28.41 98.59) rotate(-32.71)"/><circle class="cls-3" cx="162.87" cy="38.38" r="9.12"/><path class="cls-2" d="M40.94,125.81V162a8.47,8.47,0,0,0,8.47,8.47H75l.67,13.62a5.76,5.76,0,0,0,10,3.64l16-17.26H181.5A8.47,8.47,0,0,0,190,162V76.13a8.47,8.47,0,0,0-8.47-8.47H146.77"/><path class="cls-4" d="M69.65,91.7"/><path class="cls-2" d="M132.32,91.7"/><line class="cls-2" x1="67.94" y1="129.17" x2="159.71" y2="129.17"/><line class="cls-2" x1="161.19" y1="150.18" x2="67.94" y2="150.18"/></g></g></svg>