<svg xmlns="http://www.w3.org/2000/svg" viewBox="0 0 249.37 216.27"><defs><style>.cls-1{fill:#ffc680;}.cls-2{fill:#00e4a7;}.cls-3{fill:#fba0a3;}.cls-4,.cls-5{fill:none;stroke:#22244d;stroke-miterlimit:10;stroke-width:9px;}.cls-5{stroke-linecap:round;}</style></defs><title>Asset 49</title><g id="Layer_2" data-name="Layer 2"><g id="Layer_1-2" data-name="Layer 1"><circle class="cls-1" cx="238.59" cy="124.24" r="10.78"/><circle class="cls-2" cx="98.51" cy="200.02" r="10.78"/><circle class="cls-3" cx="108.76" cy="20.14" r="20.14"/><circle class="cls-4" cx="75.02" cy="112.82" r="37.25"/><line class="cls-5" x1="25.61" y1="62.49" x2="49.1" y2="86.07"/><line class="cls-5" x1="75.66" y1="42.3" x2="75.61" y2="75.58"/><line class="cls-5" x1="125.34" y1="63.41" x2="101.77" y2="86.9"/><line class="cls-5" x1="145.54" y1="113.46" x2="112.26" y2="113.41"/><line class="cls-5" x1="124.43" y1="163.14" x2="100.94" y2="139.57"/><line class="cls-5" x1="74.38" y1="183.34" x2="74.43" y2="150.06"/><line class="cls-5" x1="24.7" y1="162.23" x2="48.27" y2="138.73"/><line class="cls-5" x1="4.5" y1="112.17" x2="37.78" y2="112.23"/><circle class="cls-4" cx="178.93" cy="171.69" r="22.25" transform="translate(-45.05 65.27) rotate(-18.4)"/><line class="cls-5" x1="141.45" y1="152.49" x2="159.2" y2="161.42"/><line class="cls-5" x1="166" y1="131.61" x2="172.24" y2="150.48"/><line class="cls-5" x1="198.13" y1="134.21" x2="189.2" y2="151.96"/><line class="cls-5" x1="219.01" y1="158.76" x2="200.14" y2="165"/><line class="cls-5" x1="216.41" y1="190.89" x2="198.66" y2="181.96"/><line class="cls-5" x1="191.86" y1="211.77" x2="185.62" y2="192.9"/><line class="cls-5" x1="159.73" y1="209.18" x2="168.66" y2="191.42"/><line class="cls-5" x1="138.85" y1="184.62" x2="157.72" y2="178.38"/><circle class="cls-4" cx="183.93" cy="72.46" r="22.25" transform="translate(46.21 214.28) rotate(-67.34)"/><line class="cls-5" x1="168.28" y1="33.36" x2="175.8" y2="51.75"/><line class="cls-5" x1="200.51" y1="33.74" x2="192.82" y2="52.07"/><line class="cls-5" x1="223.03" y1="56.8" x2="204.63" y2="64.33"/><line class="cls-5" x1="222.64" y1="89.04" x2="204.32" y2="81.35"/><line class="cls-5" x1="199.58" y1="111.55" x2="192.06" y2="93.16"/><line class="cls-5" x1="167.35" y1="111.17" x2="175.04" y2="92.84"/><line class="cls-5" x1="144.83" y1="88.11" x2="163.23" y2="80.58"/><line class="cls-5" x1="145.22" y1="55.88" x2="163.54" y2="63.56"/></g></g></svg>