<?xml version="1.0" encoding="utf-8"?>
<!-- Generator: Adobe Illustrator 21.1.0, SVG Export Plug-In . SVG Version: 6.00 Build 0)  -->
<svg version="1.2" baseProfile="tiny" id="Layer_1" xmlns="http://www.w3.org/2000/svg" xmlns:xlink="http://www.w3.org/1999/xlink"
	 x="0px" y="0px" viewBox="0 0 446 446" xml:space="preserve">
<g>
	<circle fill="#00E4A7" cx="365.9" cy="338.7" r="45.6"/>
</g>
<g>
	<circle fill="#FBA0A3" cx="107.3" cy="348.7" r="29.3"/>
</g>
<g>
	<circle fill="#FBA0A3" cx="415.8" cy="202.6" r="14.6"/>
</g>
<g>
	<circle fill="#FFC680" cx="107.3" cy="110.2" r="14.5"/>
</g>
<g>
	<path fill="#22244D" d="M283.2,237.5c-1.9,0-3.7,0-5.6-0.1c-6.2-0.3-10.9-5.6-10.6-11.8c0.3-6.2,5.6-10.9,11.8-10.6
		c39.5,2.1,75.4-24.2,85.4-62.5c5.6-21.7,2.5-44.2-8.8-63.5c-11.3-19.3-29.5-33-51.1-38.7c-37.8-9.9-77,7.4-95.2,41.9
		c-2.9,5.5-9.7,7.6-15.2,4.7c-5.5-2.9-7.6-9.7-4.7-15.2C212.4,37.8,262,16,310,28.5c27.4,7.2,50.5,24.6,64.8,49s18.3,53.1,11.2,80.5
		C373.8,204.8,331.1,237.5,283.2,237.5z"/>
</g>
<g>
	<path fill="#22244D" d="M246.4,293.1c-38.2,0-69.2-31-69.2-69.2c0-38.2,31-69.2,69.2-69.2s69.2,31,69.2,69.2
		C315.6,262,284.5,293.1,246.4,293.1z M246.4,177.1c-25.8,0-46.8,21-46.8,46.8s21,46.8,46.8,46.8s46.8-21,46.8-46.8
		S272.1,177.1,246.4,177.1z"/>
</g>
<g>
	<path fill="#22244D" d="M246.4,254.1c-16.7,0-30.2-13.6-30.2-30.2s13.6-30.2,30.2-30.2c6.2,0,11.2,5,11.2,11.2
		c0,6.2-5,11.2-11.2,11.2c-4.3,0-7.8,3.5-7.8,7.8s3.5,7.8,7.8,7.8c6.2,0,11.2,5,11.2,11.2S252.6,254.1,246.4,254.1z"/>
</g>
<g>
	<path fill="#22244D" d="M218.7,428.4c-1.4,0-2.8-0.3-4.2-0.8l-30.7-12.3c-12.6-5-18.8-18.9-14.2-31.6c5.2-14.4,15.3-41.9,24.1-65.3
		c4.8-12.8,8.8-22.9,11.7-29.9c5.5-13.5,8.1-19.6,16.6-19.4l8.1,0.3l2.4,7.9c1.1,3.9,0,8-2.6,10.8c-3.4,7.2-15.4,37.5-39.3,103.3
		c-0.5,1.3,0.2,2.6,1.4,3.1l30.7,12.3c5.8,2.3,8.6,8.8,6.3,14.6C227.4,425.7,223.2,428.4,218.7,428.4z"/>
</g>
<g>
	<path fill="#22244D" d="M167.2,435.1c-1.3,0-2.5-0.2-3.8-0.7c-5.8-2.1-8.9-8.5-6.8-14.4l24.8-68.7l49.2,14.8c5.9,1.8,9.3,8,7.5,14
		s-8,9.3-14,7.5l-28.8-8.7l-17.6,48.7C176.1,432.2,171.8,435.1,167.2,435.1z"/>
</g>
<g>
	<path fill="#22244D" d="M15.1,318.9l9.8-89.8l109.8-33.8l-9.2-30c-1.2-4-0.8-8.2,1.1-11.8c1.9-3.7,5.2-6.4,9.2-7.6l71.9-22.4
		l6.7,21.4l-24.4,7.8c-0.6,0.2-1.2,0.3-1.8,0.4L149,165.2l13.8,44.8L45.6,246.1l-4.4,40.1l29.8-10.2L83,259.9c4.1-5.6,11.4-8,18.1-6
		l14.8,4.5l12.3-14.3c4.8-5.5,12.4-7.3,19.1-4.4l24.4,10.6c5.7,2.5,8.3,9.1,5.8,14.8c-2.5,5.7-9.1,8.3-14.8,5.8l-20.4-8.9l-19,22.1
		l-24.8-7.5L85,295.1L15.1,318.9z M142.5,167.2L142.5,167.2C142.5,167.3,142.5,167.3,142.5,167.2z"/>
</g>
<g>
	<path fill="#22244D" d="M192.7,209c-4.6,0-9-2.9-10.6-7.5l-7.2-20.7c-2-5.8,1-12.2,6.9-14.3c5.8-2,12.2,1,14.3,6.9l7.2,20.7
		c2,5.8-1,12.2-6.9,14.3C195.2,208.8,194,209,192.7,209z"/>
</g>
<g>
	<path fill="#22244D" d="M216.5,154.6c-3.9,0-7.6-2-9.7-5.6l-5.4-9.2c-3.1-5.4-1.3-12.2,4.1-15.3c5.4-3.1,12.2-1.3,15.3,4.1l5.4,9.2
		c3.1,5.4,1.3,12.2-4.1,15.3C220.3,154.1,218.4,154.6,216.5,154.6z"/>
</g>
</svg>
