<svg xmlns="http://www.w3.org/2000/svg" viewBox="0 0 210.83 223.88"><defs><style>.cls-1{fill:#ffc680;}.cls-2{fill:#fba0a3;}.cls-3,.cls-4{fill:none;stroke:#002c4d;stroke-miterlimit:10;stroke-width:9px;}.cls-4{stroke-linecap:round;}.cls-5{fill:#00e4a7;}</style></defs><title>Other_Posa</title><g id="Layer_2" data-name="Layer 2"><g id="Layer_1-2" data-name="Layer 1"><circle class="cls-1" cx="142.38" cy="19.41" r="19.41" transform="translate(49.1 128.72) rotate(-57.29)"/><circle class="cls-2" cx="142.38" cy="198.53" r="25.35"/><circle class="cls-3" cx="108.03" cy="111.8" r="43.95"/><path class="cls-4" d="M9.93,105.43q-.2,3.16-.2,6.37a97.87,97.87,0,0,0,11.43,46.05"/><path class="cls-4" d="M108,13.49a98.06,98.06,0,0,0-73.48,33"/><path class="cls-4" d="M177.74,181.11a98.31,98.31,0,0,0-3.55-142"/><path class="cls-4" d="M64.07,199.75a97.9,97.9,0,0,0,44,10.35"/><line class="cls-3" x1="76.86" y1="142.77" x2="60.89" y2="159.07"/><polyline class="cls-3" points="60.89 159.07 42.32 159.07 8.21 193.18 18.17 203.14"/><polyline class="cls-3" points="60.89 159.07 60.89 177.64 26.78 211.75 16.82 201.79"/><circle class="cls-5" cx="17.82" cy="73.67" r="17.82"/></g></g></svg>