<svg xmlns="http://www.w3.org/2000/svg" viewBox="0 0 262.1 220.6"><defs><style>.cls-1{fill:#00e4a7;}.cls-2{fill:#ffc680;}.cls-3{fill:#fba0a3;}.cls-4,.cls-5,.cls-6{fill:none;stroke:#22244d;stroke-linecap:round;}.cls-4{stroke-miterlimit:10;}.cls-4,.cls-5{stroke-width:9px;}.cls-5,.cls-6{stroke-linejoin:round;}.cls-6{stroke-width:13px;}</style></defs><title>Asset 31</title><g id="Layer_2" data-name="Layer 2"><g id="Layer_1-2" data-name="Layer 1"><circle class="cls-1" cx="223.09" cy="192.03" r="6.47"/><circle class="cls-2" cx="249.38" cy="72.98" r="12.72"/><circle class="cls-3" cx="16.42" cy="42.41" r="16.42"/><path class="cls-4" d="M212.38,100.37v0s-44.48,3.49-75.3-25.26a80.52,80.52,0,0,1-8.26-9"/><path class="cls-4" d="M45.26,135.32A80.79,80.79,0,0,0,126,216.1h5.55a80.79,80.79,0,0,0,80.79-80.79h0"/><path class="cls-4" d="M19.5,117.84"/><path class="cls-4" d="M140.81,45.49a83.4,83.4,0,0,1-20.24,29.58c-30.82,28.75-75.3,25.26-75.3,25.26"/><path class="cls-4" d="M45.26,98.67V85.29A80.79,80.79,0,0,1,126,4.5h5.55a80.79,80.79,0,0,1,80.79,80.79v15"/><path class="cls-4" d="M98.71,169.57h0a71.21,71.21,0,0,0,57.61,0h0"/><polyline class="cls-5" points="128.82 119.08 141.91 144.09 124.19 144.09"/><circle class="cls-3" cx="81.54" cy="144.09" r="12.51"/><circle class="cls-3" cx="175.7" cy="144.09" r="12.51"/><line class="cls-6" x1="102.17" y1="114.18" x2="102.17" y2="114.18"/><line class="cls-6" x1="152.44" y1="114.18" x2="152.44" y2="114.18"/><path class="cls-4" d="M44.42,100.61a17.73,17.73,0,0,0,0,35.45"/><path class="cls-4" d="M214.23,100.61a17.73,17.73,0,0,1,0,35.45"/></g></g></svg>