<svg xmlns="http://www.w3.org/2000/svg" viewBox="0 0 217.14 221.21"><defs><style>.cls-1{fill:#fba0a3;}.cls-2{fill:#00e4a7;}.cls-3{fill:#ffc680;}.cls-4,.cls-5{fill:none;stroke:#22244d;stroke-miterlimit:10;stroke-width:7px;}.cls-5{stroke-linecap:round;}</style></defs><title>Asset 34</title><g id="Layer_2" data-name="Layer 2"><g id="Layer_1-2" data-name="Layer 1"><circle class="cls-1" cx="146.56" cy="206.11" r="15.1"/><circle class="cls-2" cx="174.02" cy="25.22" r="13.64"/><circle class="cls-3" cx="12.83" cy="96.62" r="12.83"/><polygon class="cls-4" points="134.25 82.82 134.25 82.82 87.15 73.56 87.15 107.72 42.74 107.72 42.74 123.91 87.15 132.64 134.25 141.9 134.25 107.73 178.66 107.73 178.66 91.54 134.25 82.82"/><path class="cls-5" d="M176.75,183a101.32,101.32,0,0,0,15-141.16"/><path class="cls-5" d="M12.83,123.9a101.34,101.34,0,0,0,99.51,82.2"/><path class="cls-5" d="M152.16,11.63A101.41,101.41,0,0,0,17.42,69.33"/></g></g></svg>